<svg width="650" height="400" viewBox="0 0 650 400" xmlns="http://www.w3.org/2000/svg">
  <defs>
    <style>
      .title { font-family: Arial, sans-serif; font-size: 16px; font-weight: bold; fill: #41228e; }
      .package-title { font-family: Arial, sans-serif; font-size: 14px; font-weight: bold; fill: #41228e; }
      .price { font-family: Arial, sans-serif; font-size: 16px; font-weight: bold; fill: #28a745; }
      .feature { font-family: Arial, sans-serif; font-size: 11px; fill: #333; }
      .basic { fill: #f8f9ff; stroke: #41228e; stroke-width: 2; }
      .advanced { fill: #fff3e0; stroke: #ff9800; stroke-width: 2; }
      .custom { fill: #e8f5e8; stroke: #28a745; stroke-width: 2; }
    </style>
  </defs>
  
  <text x="325" y="25" text-anchor="middle" class="title">AI Service Packages</text>
  
  <!-- Basic Package -->
  <rect x="30" y="50" width="180" height="280" rx="10" class="basic"/>
  <text x="120" y="75" text-anchor="middle" class="package-title">Basic Setup</text>
  <text x="120" y="95" text-anchor="middle" class="price">$497 one-time</text>
  
  <line x1="50" y1="105" x2="190" y2="105" stroke="#41228e" stroke-width="1"/>
  
  <text x="50" y="125" class="feature">✓ 1 AI workflow setup</text>
  <text x="50" y="145" class="feature">✓ Content creation OR</text>
  <text x="60" y="160" class="feature">automation focus</text>
  <text x="50" y="180" class="feature">✓ Training session</text>
  <text x="50" y="200" class="feature">✓ Documentation &</text>
  <text x="60" y="215" class="feature">templates</text>
  <text x="50" y="235" class="feature">✓ 30 days email support</text>
  
  <rect x="50" y="260" width="140" height="50" rx="5" fill="#41228e"/>
  <text x="120" y="280" text-anchor="middle" class="feature" fill="white">Perfect for</text>
  <text x="120" y="295" text-anchor="middle" class="feature" fill="white">getting started</text>
  
  <!-- Advanced Package -->
  <rect x="235" y="50" width="180" height="280" rx="10" class="advanced"/>
  <text x="325" y="75" text-anchor="middle" class="package-title">Advanced Package</text>
  <text x="325" y="95" text-anchor="middle" class="price">$897 one-time</text>
  
  <line x1="255" y1="105" x2="395" y2="105" stroke="#ff9800" stroke-width="1"/>
  
  <text x="255" y="125" class="feature">✓ 2-3 AI workflow setups</text>
  <text x="255" y="145" class="feature">✓ Custom automation</text>
  <text x="255" y="165" class="feature">✓ Development expertise</text>
  <text x="255" y="185" class="feature">✓ Comprehensive training</text>
  <text x="255" y="205" class="feature">✓ Complete documentation</text>
  <text x="255" y="225" class="feature">✓ 60 days support &</text>
  <text x="265" y="240" class="feature">refinements</text>
  
  <rect x="255" y="260" width="140" height="50" rx="5" fill="#ff9800"/>
  <text x="325" y="280" text-anchor="middle" class="feature" fill="white">Most popular</text>
  <text x="325" y="295" text-anchor="middle" class="feature" fill="white">choice</text>
  
  <!-- Custom Development -->
  <rect x="440" y="50" width="180" height="280" rx="10" class="custom"/>
  <text x="530" y="75" text-anchor="middle" class="package-title">Custom Development</text>
  <text x="530" y="95" text-anchor="middle" class="price">$150/hour</text>
  
  <line x1="460" y1="105" x2="600" y2="105" stroke="#28a745" stroke-width="1"/>
  
  <text x="460" y="125" class="feature">✓ Custom AI integrations</text>
  <text x="460" y="145" class="feature">✓ API implementations</text>
  <text x="460" y="165" class="feature">✓ Custom tools & interfaces</text>
  <text x="460" y="185" class="feature">✓ Complex automation</text>
  <text x="465" y="200" class="feature">projects</text>
  <text x="460" y="220" class="feature">✓ Ongoing maintenance</text>
  <text x="460" y="240" class="feature">✓ Updates & support</text>
  
  <rect x="460" y="260" width="140" height="50" rx="5" fill="#28a745"/>
  <text x="530" y="280" text-anchor="middle" class="feature" fill="white">Enterprise-grade</text>
  <text x="530" y="295" text-anchor="middle" class="feature" fill="white">solutions</text>
  
  <!-- Bottom note -->
  <rect x="150" y="350" width="350" height="35" rx="5" fill="#f8f9ff" stroke="#41228e" stroke-dasharray="3,3"/>
  <text x="325" y="370" text-anchor="middle" class="feature" font-style="italic">All packages include: Free 30-min consultation • No ongoing dependencies • You own the systems</text>
</svg>